{
  "source": "C:\\Users\\Peter\\Desktop\\stuff\\MIUN\\quantitative_research\\video_compression\\videos\\BVI-HD\\BVI-HD_CDVL_videos\\ORIG\\BricksLeaves_1920x1080_60fps.mp4",
  "output": "C:\\Users\\Peter\\Desktop\\stuff\\MIUN\\quantitative_research\\video_compression\\compressed_videos\\BVI-HD\\hevc\\1\\BricksLeaves_1920x1080_60fps_hevc.mp4",
  "codec": "hevc",
  "ok": "Input #0, mov,mp4,m4a,3gp,3g2,mj2, from 'C:\\Users\\Peter\\Desktop\\stuff\\MIUN\\quantitative_research\\video_compression\\videos\\BVI-HD\\BVI-HD_CDVL_videos\\ORIG\\BricksLeaves_1920x1080_60fps.mp4':\n  Metadata:\n    major_brand     : isom\n    minor_version   : 512\n    compatible_brands: isomiso2avc1mp41\n    encoder         : Lavf54.28.101\n  Duration: 00:00:05.00, start: 0.000000, bitrate: 524627 kb/s\n  Stream #0:0[0x1](und): Video: h264 (High 4:4:4 Predictive) (avc1 / 0x31637661), yuv420p(progressive), 1920x1080, 524622 kb/s, 60 fps, 60 tbr, 60 tbn (default)\n    Metadata:\n      handler_name    : VideoHandler\n      vendor_id       : [0][0][0][0]\n[out#0/mp4 @ 0000019689a0ab40] Codec AVOption b:a (set bitrate (in bits/s)) has not been used for any stream. The most likely reason is either wrong type (e.g. a video option with no video streams) or that it is a private option of some decoder which was not actually used for any stream.\nStream mapping:\n  Stream #0:0 -> #0:0 (h264 (native) -> hevc (libx265))\nPress [q] to stop, [?] for help\n[libx265 @ 000001968a5b04c0] Unknown option: \"aq-mode.\nx265 [info]: HEVC encoder version 4.1+190-8f11c33ac\nx265 [info]: build info [Windows][GCC 15.1.0][64 bit] 10bit\nx265 [info]: using cpu capabilities: MMX2 SSE2Fast LZCNT SSSE3 SSE4.2 AVX FMA3 BMI2 AVX2\nx265 [info]: Main 10 profile, Level-4.1 (Main tier)\nx265 [info]: Thread pool created using 12 threads\nx265 [info]: Slices                              : 1\nx265 [info]: frame threads / pool features       : 3 / wpp(17 rows)\nx265 [info]: Coding QT: max CU size, min CU size : 64 / 8\nx265 [info]: Residual QT: max TU size, max depth : 32 / 1 inter / 1 intra\nx265 [info]: ME / range / subpel / merge         : star / 57 / 3 / 3\nx265 [info]: Keyframe min / max / scenecut / bias  : 25 / 250 / 40 / 5.00 \nx265 [info]: Lookahead / bframes / badapt        : 25 / 4 / 2\nx265 [info]: b-pyramid / weightp / weightb       : 1 / 1 / 0\nx265 [info]: References / ref-limit  cu / depth  : 4 / on / on\nx265 [info]: AQ: mode / str / qg-size / cu-tree  : 2 / 1.0 / 32 / 1\nx265 [info]: Rate Control / qCompress            : ABR-1000 kbps / 0.60\nx265 [info]: VBV/HRD buffer / max-rate / init    : 1000 / 1000 / 0.750\nx265 [info]: tools: rect limit-modes rd=4 psy-rd=2.00 rdoq=2 psy-rdoq=1.00\nx265 [info]: tools: rskip mode=1 signhide tmvp strong-intra-smoothing lslices=4\nx265 [info]: tools: deblock sao dhdr10-info\nOutput #0, mp4, to 'C:\\Users\\Peter\\Desktop\\stuff\\MIUN\\quantitative_research\\video_compression\\compressed_videos\\BVI-HD\\hevc\\1\\BricksLeaves_1920x1080_60fps_hevc.mp4':\n  Metadata:\n    major_brand     : isom\n    minor_version   : 512\n    compatible_brands: isomiso2avc1mp41\n    encoder         : Lavf62.3.100\n  Stream #0:0(und): Video: hevc (hev1 / 0x31766568), yuv420p10le(tv, progressive), 1920x1080, q=2-31, 1000 kb/s, 60 fps, 15360 tbn (default)\n    Metadata:\n      encoder         : Lavc62.11.100 libx265\n      handler_name    : VideoHandler\n      vendor_id       : [0][0][0][0]\n    Side data:\n      cpb: bitrate max/min/avg: 1000000/0/1000000 buffer size: 1000000 vbv_delay: N/A\nframe=    0 fps=0.0 q=0.0 size=       0KiB time=N/A bitrate=N/A speed=N/A elapsed=0:00:01.02    \nframe=    0 fps=0.0 q=0.0 size=       0KiB time=N/A bitrate=N/A speed=N/A elapsed=0:00:01.58    \nframe=    0 fps=0.0 q=0.0 size=       0KiB time=N/A bitrate=N/A speed=N/A elapsed=0:00:02.11    \nframe=    0 fps=0.0 q=0.0 size=       0KiB time=N/A bitrate=N/A speed=N/A elapsed=0:00:02.69    \nframe=    0 fps=0.0 q=0.0 size=       0KiB time=N/A bitrate=N/A speed=N/A elapsed=0:00:03.22    \nframe=    0 fps=0.0 q=0.0 size=       0KiB time=N/A bitrate=N/A speed=N/A elapsed=0:00:03.74    \nframe=    0 fps=0.0 q=0.0 size=       0KiB time=N/A bitrate=N/A speed=N/A elapsed=0:00:04.28    \nframe=    0 fps=0.0 q=0.0 size=       0KiB time=N/A bitrate=N/A speed=N/A elapsed=0:00:04.81    \nframe=    0 fps=0.0 q=0.0 size=       0KiB time=N/A bitrate=N/A speed=N/A elapsed=0:00:05.33    \nframe=    0 fps=0.0 q=0.0 size=       0KiB time=N/A bitrate=N/A speed=N/A elapsed=0:00:05.85    \nframe=    3 fps=0.5 q=51.0 size=       0KiB time=00:00:00.01 bitrate=  21.1kbits/s speed=0.00261x elapsed=0:00:06.37    \nframe=    3 fps=0.4 q=51.0 size=       0KiB time=00:00:00.01 bitrate=  21.1kbits/s speed=0.00242x elapsed=0:00:06.90    \nframe=    4 fps=0.5 q=51.0 size=       0KiB time=00:00:00.03 bitrate=  10.6kbits/s speed=0.00449x elapsed=0:00:07.42    \nframe=    6 fps=0.8 q=51.0 size=       0KiB time=00:00:00.06 bitrate=   5.3kbits/s speed=0.00839x elapsed=0:00:07.94    \nframe=    7 fps=0.8 q=51.0 size=       0KiB time=00:00:00.08 bitrate=   4.2kbits/s speed=0.00984x elapsed=0:00:08.46    \nframe=    9 fps=1.0 q=51.0 size=       0KiB time=00:00:00.11 bitrate=   3.0kbits/s speed=0.013x elapsed=0:00:08.97    \nframe=   10 fps=1.1 q=51.0 size=       0KiB time=00:00:00.13 bitrate=   2.6kbits/s speed=0.014x elapsed=0:00:09.49    \nframe=   11 fps=1.1 q=51.0 size=       0KiB time=00:00:00.15 bitrate=   2.3kbits/s speed=0.015x elapsed=0:00:10.01    \nframe=   13 fps=1.2 q=51.0 size=       0KiB time=00:00:00.18 bitrate=   1.9kbits/s speed=0.0174x elapsed=0:00:10.52    \nframe=   13 fps=1.2 q=51.0 size=       0KiB time=00:00:00.18 bitrate=   1.9kbits/s speed=0.0166x elapsed=0:00:11.05    \nframe=   14 fps=1.2 q=51.0 size=       0KiB time=00:00:00.20 bitrate=   1.8kbits/s speed=0.0173x elapsed=0:00:11.56    \nframe=   15 fps=1.2 q=51.0 size=       0KiB time=00:00:00.21 bitrate=   1.6kbits/s speed=0.0179x elapsed=0:00:12.09    \nframe=   16 fps=1.3 q=51.0 size=       0KiB time=00:00:00.23 bitrate=   1.5kbits/s speed=0.0184x elapsed=0:00:12.65    \nframe=   16 fps=1.2 q=51.0 size=       0KiB time=00:00:00.23 bitrate=   1.5kbits/s speed=0.0177x elapsed=0:00:13.16    \nframe=   17 fps=1.2 q=50.3 size=       0KiB time=00:00:00.25 bitrate=   1.4kbits/s speed=0.0183x elapsed=0:00:13.67    \nframe=   18 fps=1.3 q=51.0 size=       0KiB time=00:00:00.26 bitrate=   1.3kbits/s speed=0.0188x elapsed=0:00:14.19    \nframe=   19 fps=1.3 q=51.0 size=       0KiB time=00:00:00.28 bitrate=   1.2kbits/s speed=0.0192x elapsed=0:00:14.71    \nframe=   19 fps=1.2 q=51.0 size=       0KiB time=00:00:00.28 bitrate=   1.2kbits/s speed=0.0186x elapsed=0:00:15.24    \nframe=   19 fps=1.2 q=51.0 size=       0KiB time=00:00:00.28 bitrate=   1.2kbits/s speed=0.018x elapsed=0:00:15.76    \nframe=   19 fps=1.2 q=51.0 size=       0KiB time=00:00:00.28 bitrate=   1.2kbits/s speed=0.0174x elapsed=0:00:16.27    \nframe=   21 fps=1.2 q=51.0 size=       0KiB time=00:00:00.31 bitrate=   1.1kbits/s speed=0.0188x elapsed=0:00:16.80    \nframe=   21 fps=1.2 q=51.0 size=       0KiB time=00:00:00.31 bitrate=   1.1kbits/s speed=0.0183x elapsed=0:00:17.34    \nframe=   22 fps=1.2 q=49.3 size=       0KiB time=00:00:00.33 bitrate=   1.1kbits/s speed=0.0187x elapsed=0:00:17.86    \nframe=   22 fps=1.2 q=49.3 size=       0KiB time=00:00:00.33 bitrate=   1.1kbits/s speed=0.0181x elapsed=0:00:18.38    \nframe=   23 fps=1.2 q=51.0 size=       0KiB time=00:00:00.35 bitrate=   1.0kbits/s speed=0.0185x elapsed=0:00:18.90    \nframe=   24 fps=1.2 q=51.0 size=       0KiB time=00:00:00.36 bitrate=   1.0kbits/s speed=0.0189x elapsed=0:00:19.41    \nframe=   24 fps=1.2 q=51.0 size=       0KiB time=00:00:00.36 bitrate=   1.0kbits/s speed=0.0184x elapsed=0:00:19.93    \nframe=   25 fps=1.2 q=51.0 size=       0KiB time=00:00:00.38 bitrate=   0.9kbits/s speed=0.0188x elapsed=0:00:20.43    \nframe=   26 fps=1.2 q=51.0 size=       0KiB time=00:00:00.40 bitrate=   0.9kbits/s speed=0.0191x elapsed=0:00:20.96    \nframe=   26 fps=1.2 q=51.0 size=       0KiB time=00:00:00.40 bitrate=   0.9kbits/s speed=0.0186x elapsed=0:00:21.49    \nframe=   27 fps=1.2 q=48.2 size=       0KiB time=00:00:00.41 bitrate=   0.8kbits/s speed=0.0189x elapsed=0:00:22.03    \nframe=   27 fps=1.2 q=48.2 size=       0KiB time=00:00:00.41 bitrate=   0.8kbits/s speed=0.0185x elapsed=0:00:22.56    \nframe=   29 fps=1.3 q=51.0 size=       0KiB time=00:00:00.45 bitrate=   0.8kbits/s speed=0.0195x elapsed=0:00:23.09    \nframe=   29 fps=1.2 q=51.0 size=       0KiB time=00:00:00.45 bitrate=   0.8kbits/s speed=0.0191x elapsed=0:00:23.61    \nframe=   30 fps=1.2 q=51.0 size=       0KiB time=00:00:00.46 bitrate=   0.8kbits/s speed=0.0193x elapsed=0:00:24.13    \nframe=   31 fps=1.3 q=51.0 size=       0KiB time=00:00:00.48 bitrate=   0.7kbits/s speed=0.0196x elapsed=0:00:24.66    \nframe=   32 fps=1.3 q=48.0 size=       0KiB time=00:00:00.50 bitrate=   0.7kbits/s speed=0.0199x elapsed=0:00:25.17    \nframe=   33 fps=1.3 q=51.0 size=       0KiB time=00:00:00.51 bitrate=   0.7kbits/s speed=0.0201x elapsed=0:00:25.70    \nframe=   34 fps=1.3 q=51.0 size=       0KiB time=00:00:00.53 bitrate=   0.7kbits/s speed=0.0203x elapsed=0:00:26.21    \nframe=   34 fps=1.3 q=51.0 size=       0KiB time=00:00:00.53 bitrate=   0.7kbits/s speed=0.0199x elapsed=0:00:26.74    \nframe=   35 fps=1.3 q=51.0 size=       0KiB time=00:00:00.55 bitrate=   0.6kbits/s speed=0.0202x elapsed=0:00:27.26    \nframe=   36 fps=1.3 q=51.0 size=       0KiB time=00:00:00.56 bitrate=   0.6kbits/s speed=0.0204x elapsed=0:00:27.79    \nframe=   37 fps=1.3 q=48.6 size=       0KiB time=00:00:00.58 bitrate=   0.6kbits/s speed=0.0206x elapsed=0:00:28.32    \nframe=   37 fps=1.3 q=48.6 size=       0KiB time=00:00:00.58 bitrate=   0.6kbits/s speed=0.0202x elapsed=0:00:28.84    \nframe=   39 fps=1.3 q=51.0 size=       0KiB time=00:00:00.61 bitrate=   0.6kbits/s speed=0.021x elapsed=0:00:29.36    \nframe=   39 fps=1.3 q=51.0 size=       0KiB time=00:00:00.61 bitrate=   0.6kbits/s speed=0.0206x elapsed=0:00:29.88    \nframe=   39 fps=1.3 q=51.0 size=       0KiB time=00:00:00.61 bitrate=   0.6kbits/s speed=0.0203x elapsed=0:00:30.39    \nframe=   41 fps=1.3 q=51.0 size=       0KiB time=00:00:00.65 bitrate=   0.5kbits/s speed=0.021x elapsed=0:00:30.90    \nframe=   42 fps=1.3 q=48.6 size=       0KiB time=00:00:00.66 bitrate=   0.5kbits/s speed=0.0212x elapsed=0:00:31.42    \nframe=   43 fps=1.3 q=51.0 size=       0KiB time=00:00:00.68 bitrate=   0.5kbits/s speed=0.0214x elapsed=0:00:31.94    \nframe=   43 fps=1.3 q=51.0 size=       0KiB time=00:00:00.68 bitrate=   0.5kbits/s speed=0.021x elapsed=0:00:32.52    \nframe=   43 fps=1.3 q=51.0 size=       0KiB time=00:00:00.68 bitrate=   0.5kbits/s speed=0.0207x elapsed=0:00:33.05    \nframe=   44 fps=1.3 q=51.0 size=       0KiB time=00:00:00.70 bitrate=   0.5kbits/s speed=0.0208x elapsed=0:00:33.59    \nframe=   44 fps=1.3 q=51.0 size=       0KiB time=00:00:00.70 bitrate=   0.5kbits/s speed=0.0205x elapsed=0:00:34.11    \nframe=   44 fps=1.3 q=51.0 size=       0KiB time=00:00:00.70 bitrate=   0.5kbits/s speed=0.0202x elapsed=0:00:34.64    \nframe=   46 fps=1.3 q=51.0 size=       0KiB time=00:00:00.73 bitrate=   0.5kbits/s speed=0.0209x elapsed=0:00:35.17    \nframe=   48 fps=1.3 q=51.0 size=       0KiB time=00:00:00.76 bitrate=   0.5kbits/s speed=0.0215x elapsed=0:00:35.68    \nframe=   50 fps=1.4 q=51.0 size=       0KiB time=00:00:00.80 bitrate=   0.4kbits/s speed=0.0221x elapsed=0:00:36.20    \nframe=   51 fps=1.4 q=51.0 size=       0KiB time=00:00:00.81 bitrate=   0.4kbits/s speed=0.0222x elapsed=0:00:36.70    \nframe=   52 fps=1.4 q=48.4 size=       0KiB time=00:00:00.83 bitrate=   0.4kbits/s speed=0.0224x elapsed=0:00:37.22    \nframe=   52 fps=1.4 q=48.4 size=       0KiB time=00:00:00.83 bitrate=   0.4kbits/s speed=0.0221x elapsed=0:00:37.76    \nframe=   54 fps=1.4 q=51.0 size=       0KiB time=00:00:00.86 bitrate=   0.4kbits/s speed=0.0226x elapsed=0:00:38.28    \nframe=   54 fps=1.4 q=51.0 size=       0KiB time=00:00:00.86 bitrate=   0.4kbits/s speed=0.0223x elapsed=0:00:38.80    \nframe=   54 fps=1.4 q=51.0 size=       0KiB time=00:00:00.86 bitrate=   0.4kbits/s speed=0.022x elapsed=0:00:39.35    \nframe=   54 fps=1.4 q=51.0 size=       0KiB time=00:00:00.86 bitrate=   0.4kbits/s speed=0.0217x elapsed=0:00:39.89    \nframe=   54 fps=1.3 q=51.0 size=       0KiB time=00:00:00.86 bitrate=   0.4kbits/s speed=0.0214x elapsed=0:00:40.48    \nframe=   54 fps=1.3 q=51.0 size=       0KiB time=00:00:00.86 bitrate=   0.4kbits/s speed=0.0211x elapsed=0:00:41.06    \nframe=   54 fps=1.3 q=51.0 size=       0KiB time=00:00:00.86 bitrate=   0.4kbits/s speed=0.0208x elapsed=0:00:41.58    \nframe=   54 fps=1.3 q=51.0 size=       0KiB time=00:00:00.86 bitrate=   0.4kbits/s speed=0.0206x elapsed=0:00:42.15    \nframe=   55 fps=1.3 q=51.0 size=       0KiB time=00:00:00.88 bitrate=   0.4kbits/s speed=0.0206x elapsed=0:00:42.80    \nframe=   56 fps=1.3 q=51.0 size=       0KiB time=00:00:00.90 bitrate=   0.4kbits/s speed=0.0207x elapsed=0:00:43.48    \nframe=   56 fps=1.3 q=51.0 size=       0KiB time=00:00:00.90 bitrate=   0.4kbits/s speed=0.0204x elapsed=0:00:44.07    \nframe=   56 fps=1.3 q=51.0 size=       0KiB time=00:00:00.90 bitrate=   0.4kbits/s speed=0.0202x elapsed=0:00:44.61    \nframe=   56 fps=1.2 q=51.0 size=       0KiB time=00:00:00.90 bitrate=   0.4kbits/s speed=0.0199x elapsed=0:00:45.16    \nframe=   57 fps=1.2 q=48.4 size=       0KiB time=00:00:00.91 bitrate=   0.4kbits/s speed=0.0201x elapsed=0:00:45.67    \nframe=   58 fps=1.3 q=51.0 size=       0KiB time=00:00:00.93 bitrate=   0.4kbits/s speed=0.0202x elapsed=0:00:46.21    \nframe=   59 fps=1.3 q=51.0 size=       0KiB time=00:00:00.95 bitrate=   0.4kbits/s speed=0.0203x elapsed=0:00:46.74    \nframe=   60 fps=1.3 q=51.0 size=       0KiB time=00:00:00.96 bitrate=   0.4kbits/s speed=0.0204x elapsed=0:00:47.28    \nframe=   60 fps=1.3 q=51.0 size=       0KiB time=00:00:00.96 bitrate=   0.4kbits/s speed=0.0202x elapsed=0:00:47.80    \nframe=   60 fps=1.2 q=51.0 size=       0KiB time=00:00:00.96 bitrate=   0.4kbits/s speed=0.02x elapsed=0:00:48.41    \nframe=   60 fps=1.2 q=51.0 size=       0KiB time=00:00:00.96 bitrate=   0.4kbits/s speed=0.0197x elapsed=0:00:48.97    \nframe=   61 fps=1.2 q=51.0 size=       0KiB time=00:00:00.98 bitrate=   0.4kbits/s speed=0.0199x elapsed=0:00:49.49    \nframe=   62 fps=1.2 q=48.7 size=       0KiB time=00:00:01.00 bitrate=   0.4kbits/s speed=0.02x elapsed=0:00:50.01    \nframe=   62 fps=1.2 q=48.7 size=       0KiB time=00:00:01.00 bitrate=   0.4kbits/s speed=0.0198x elapsed=0:00:50.54    \nframe=   63 fps=1.2 q=51.0 size=       0KiB time=00:00:01.01 bitrate=   0.3kbits/s speed=0.0199x elapsed=0:00:51.08    \nframe=   64 fps=1.2 q=51.0 size=       0KiB time=00:00:01.03 bitrate=   0.3kbits/s speed=0.02x elapsed=0:00:51.63    \nframe=   64 fps=1.2 q=51.0 size=       0KiB time=00:00:01.03 bitrate=   0.3kbits/s speed=0.0198x elapsed=0:00:52.14    \nframe=   64 fps=1.2 q=51.0 size=       0KiB time=00:00:01.03 bitrate=   0.3kbits/s speed=0.0196x elapsed=0:00:52.66    \nframe=   65 fps=1.2 q=51.0 size=       0KiB time=00:00:01.05 bitrate=   0.3kbits/s speed=0.0197x elapsed=0:00:53.22    \nframe=   65 fps=1.2 q=51.0 size=       0KiB time=00:00:01.05 bitrate=   0.3kbits/s speed=0.0195x elapsed=0:00:53.76    \nframe=   65 fps=1.2 q=51.0 size=       0KiB time=00:00:01.05 bitrate=   0.3kbits/s speed=0.0193x elapsed=0:00:54.30    \nframe=   65 fps=1.2 q=51.0 size=       0KiB time=00:00:01.05 bitrate=   0.3kbits/s speed=0.0191x elapsed=0:00:54.85    \nframe=   65 fps=1.2 q=51.0 size=       0KiB time=00:00:01.05 bitrate=   0.3kbits/s speed=0.019x elapsed=0:00:55.36    \nframe=   66 fps=1.2 q=51.0 size=       0KiB time=00:00:01.06 bitrate=   0.3kbits/s speed=0.0191x elapsed=0:00:55.88    \nframe=   66 fps=1.2 q=51.0 size=       0KiB time=00:00:01.06 bitrate=   0.3kbits/s speed=0.0189x elapsed=0:00:56.39    \nframe=   68 fps=1.2 q=51.0 size=       0KiB time=00:00:01.10 bitrate=   0.3kbits/s speed=0.0193x elapsed=0:00:56.91    \nframe=   68 fps=1.2 q=51.0 size=       0KiB time=00:00:01.10 bitrate=   0.3kbits/s speed=0.0191x elapsed=0:00:57.44    \nframe=   68 fps=1.2 q=51.0 size=       0KiB time=00:00:01.10 bitrate=   0.3kbits/s speed=0.019x elapsed=0:00:57.97    \nframe=   70 fps=1.2 q=51.0 size=       0KiB time=00:00:01.13 bitrate=   0.3kbits/s speed=0.0194x elapsed=0:00:58.50    \nframe=   71 fps=1.2 q=51.0 size=       0KiB time=00:00:01.15 bitrate=   0.3kbits/s speed=0.0195x elapsed=0:00:59.02    \nframe=   73 fps=1.2 q=51.0 size=       0KiB time=00:00:01.18 bitrate=   0.3kbits/s speed=0.0199x elapsed=0:00:59.53    \nframe=   73 fps=1.2 q=51.0 size=       0KiB time=00:00:01.18 bitrate=   0.3kbits/s speed=0.0197x elapsed=0:01:00.07    \nframe=   74 fps=1.2 q=51.0 size=       0KiB time=00:00:01.20 bitrate=   0.3kbits/s speed=0.0198x elapsed=0:01:00.61    \nframe=   74 fps=1.2 q=51.0 size=       0KiB time=00:00:01.20 bitrate=   0.3kbits/s speed=0.0196x elapsed=0:01:01.15    \nframe=   75 fps=1.2 q=51.0 size=       0KiB time=00:00:01.21 bitrate=   0.3kbits/s speed=0.0197x elapsed=0:01:01.65    \nframe=   76 fps=1.2 q=51.0 size=       0KiB time=00:00:01.23 bitrate=   0.3kbits/s speed=0.0198x elapsed=0:01:02.17    \nframe=   77 fps=1.2 q=46.6 size=       0KiB time=00:00:01.25 bitrate=   0.3kbits/s speed=0.0199x elapsed=0:01:02.69    \nframe=   77 fps=1.2 q=46.6 size=       0KiB time=00:00:01.25 bitrate=   0.3kbits/s speed=0.0198x elapsed=0:01:03.21    \nframe=   77 fps=1.2 q=46.6 size=       0KiB time=00:00:01.25 bitrate=   0.3kbits/s speed=0.0196x elapsed=0:01:03.73    \nframe=   79 fps=1.2 q=51.0 size=       0KiB time=00:00:01.28 bitrate=   0.3kbits/s speed=0.02x elapsed=0:01:04.26    \nframe=   79 fps=1.2 q=51.0 size=       0KiB time=00:00:01.28 bitrate=   0.3kbits/s speed=0.0198x elapsed=0:01:04.78    \nframe=   80 fps=1.2 q=51.0 size=       0KiB time=00:00:01.30 bitrate=   0.3kbits/s speed=0.0199x elapsed=0:01:05.30    \nframe=   80 fps=1.2 q=51.0 size=       0KiB time=00:00:01.30 bitrate=   0.3kbits/s speed=0.0198x elapsed=0:01:05.82    \nframe=   81 fps=1.2 q=51.0 size=       0KiB time=00:00:01.31 bitrate=   0.3kbits/s speed=0.0198x elapsed=0:01:06.34    \nframe=   82 fps=1.2 q=47.1 size=       0KiB time=00:00:01.33 bitrate=   0.3kbits/s speed=0.0199x elapsed=0:01:06.86    \nframe=   83 fps=1.2 q=51.0 size=       0KiB time=00:00:01.35 bitrate=   0.3kbits/s speed=0.02x elapsed=0:01:07.38    \nframe=   84 fps=1.2 q=51.0 size=       0KiB time=00:00:01.36 bitrate=   0.3kbits/s speed=0.0201x elapsed=0:01:07.90    \nframe=   84 fps=1.2 q=51.0 size=       0KiB time=00:00:01.36 bitrate=   0.3kbits/s speed=0.02x elapsed=0:01:08.43    \nframe=   85 fps=1.2 q=51.0 size=       0KiB time=00:00:01.38 bitrate=   0.3kbits/s speed=0.0201x elapsed=0:01:08.94    \nframe=   86 fps=1.2 q=50.9 size=       0KiB time=00:00:01.40 bitrate=   0.3kbits/s speed=0.0202x elapsed=0:01:09.47    \nframe=   86 fps=1.2 q=50.9 size=       0KiB time=00:00:01.40 bitrate=   0.3kbits/s speed=0.02x elapsed=0:01:10.01    \nframe=   86 fps=1.2 q=50.9 size=       0KiB time=00:00:01.40 bitrate=   0.3kbits/s speed=0.0198x elapsed=0:01:10.56    \nframe=   87 fps=1.2 q=46.2 size=       0KiB time=00:00:01.41 bitrate=   0.2kbits/s speed=0.0199x elapsed=0:01:11.09    \nframe=   87 fps=1.2 q=46.2 size=       0KiB time=00:00:01.41 bitrate=   0.2kbits/s speed=0.0198x elapsed=0:01:11.62    \nframe=   88 fps=1.2 q=51.0 size=       0KiB time=00:00:01.43 bitrate=   0.2kbits/s speed=0.0199x elapsed=0:01:12.17    \nframe=   89 fps=1.2 q=51.0 size=       0KiB time=00:00:01.45 bitrate=   0.2kbits/s speed=0.02x elapsed=0:01:12.67    \nframe=   90 fps=1.2 q=51.0 size=       0KiB time=00:00:01.46 bitrate=   0.2kbits/s speed=0.02x elapsed=0:01:13.19    \nframe=   90 fps=1.2 q=51.0 size=       0KiB time=00:00:01.46 bitrate=   0.2kbits/s speed=0.0199x elapsed=0:01:13.71    \nframe=   91 fps=1.2 q=51.0 size=       0KiB time=00:00:01.48 bitrate=   0.2kbits/s speed=0.02x elapsed=0:01:14.24    \nframe=   92 fps=1.2 q=46.5 size=       0KiB time=00:00:01.50 bitrate=   0.2kbits/s speed=0.0201x elapsed=0:01:14.78    \nframe=   92 fps=1.2 q=46.5 size=       0KiB time=00:00:01.50 bitrate=   0.2kbits/s speed=0.0199x elapsed=0:01:15.31    \nframe=   93 fps=1.2 q=51.0 size=       0KiB time=00:00:01.51 bitrate=   0.2kbits/s speed=0.02x elapsed=0:01:15.84    \nframe=   94 fps=1.2 q=51.0 size=       0KiB time=00:00:01.53 bitrate=   0.2kbits/s speed=0.0201x elapsed=0:01:16.37    \nframe=   94 fps=1.2 q=51.0 size=       0KiB time=00:00:01.53 bitrate=   0.2kbits/s speed=0.0199x elapsed=0:01:16.89    \nframe=   95 fps=1.2 q=51.0 size=       0KiB time=00:00:01.55 bitrate=   0.2kbits/s speed=0.02x elapsed=0:01:17.41    \nframe=   96 fps=1.2 q=51.0 size=       0KiB time=00:00:01.56 bitrate=   0.2kbits/s speed=0.0201x elapsed=0:01:17.92    \nframe=   96 fps=1.2 q=51.0 size=       0KiB time=00:00:01.56 bitrate=   0.2kbits/s speed=0.02x elapsed=0:01:18.44    \nframe=   97 fps=1.2 q=46.4 size=       0KiB time=00:00:01.58 bitrate=   0.2kbits/s speed=0.02x elapsed=0:01:18.97    \nframe=   97 fps=1.2 q=46.4 size=       0KiB time=00:00:01.58 bitrate=   0.2kbits/s speed=0.0199x elapsed=0:01:19.50    \nframe=   97 fps=1.2 q=46.4 size=       0KiB time=00:00:01.58 bitrate=   0.2kbits/s speed=0.0198x elapsed=0:01:20.04    \nframe=   98 fps=1.2 q=50.9 size=       0KiB time=00:00:01.60 bitrate=   0.2kbits/s speed=0.0199x elapsed=0:01:20.56    \nframe=   98 fps=1.2 q=50.9 size=       0KiB time=00:00:01.60 bitrate=   0.2kbits/s speed=0.0197x elapsed=0:01:21.11    \nframe=   99 fps=1.2 q=51.0 size=       0KiB time=00:00:01.61 bitrate=   0.2kbits/s speed=0.0198x elapsed=0:01:21.64    \nframe=  101 fps=1.2 q=51.0 size=       0KiB time=00:00:01.63 bitrate=   0.2kbits/s speed=0.0199x elapsed=0:01:22.16    \nframe=  101 fps=1.2 q=51.0 size=       0KiB time=00:00:01.65 bitrate=   0.2kbits/s speed=0.02x elapsed=0:01:22.69    \nframe=  102 fps=1.2 q=46.9 size=       0KiB time=00:00:01.66 bitrate=   0.2kbits/s speed=0.02x elapsed=0:01:23.20    \nframe=  103 fps=1.2 q=50.9 size=       0KiB time=00:00:01.68 bitrate=   0.2kbits/s speed=0.0201x elapsed=0:01:23.73    \nframe=  103 fps=1.2 q=50.9 size=       0KiB time=00:00:01.68 bitrate=   0.2kbits/s speed=0.02x elapsed=0:01:24.24    \nframe=  104 fps=1.2 q=51.0 size=       0KiB time=00:00:01.70 bitrate=   0.2kbits/s speed=0.0201x elapsed=0:01:24.76    \nframe=  104 fps=1.2 q=51.0 size=       0KiB time=00:00:01.70 bitrate=   0.2kbits/s speed=0.0199x elapsed=0:01:25.30    \nframe=  104 fps=1.2 q=51.0 size=       0KiB time=00:00:01.70 bitrate=   0.2kbits/s speed=0.0198x elapsed=0:01:25.82    \nframe=  105 fps=1.2 q=50.7 size=       0KiB time=00:00:01.71 bitrate=   0.2kbits/s speed=0.0199x elapsed=0:01:26.35    \nframe=  106 fps=1.2 q=50.8 size=       0KiB time=00:00:01.73 bitrate=   0.2kbits/s speed=0.02x elapsed=0:01:26.87    \nframe=  106 fps=1.2 q=50.8 size=       0KiB time=00:00:01.73 bitrate=   0.2kbits/s speed=0.0198x elapsed=0:01:27.37    \nframe=  107 fps=1.2 q=46.3 size=       0KiB time=00:00:01.75 bitrate=   0.2kbits/s speed=0.0199x elapsed=0:01:27.89    \nframe=  108 fps=1.2 q=50.7 size=       0KiB time=00:00:01.76 bitrate=   0.2kbits/s speed=0.02x elapsed=0:01:28.41    \nframe=  109 fps=1.2 q=51.0 size=       0KiB time=00:00:01.78 bitrate=   0.2kbits/s speed=0.0201x elapsed=0:01:28.92    \nframe=  109 fps=1.2 q=51.0 size=       0KiB time=00:00:01.78 bitrate=   0.2kbits/s speed=0.0199x elapsed=0:01:29.43    \nframe=  109 fps=1.2 q=51.0 size=       0KiB time=00:00:01.78 bitrate=   0.2kbits/s speed=0.0198x elapsed=0:01:30.04    \nframe=  109 fps=1.2 q=51.0 size=       0KiB time=00:00:01.78 bitrate=   0.2kbits/s speed=0.0197x elapsed=0:01:30.66    \nframe=  109 fps=1.2 q=51.0 size=       0KiB time=00:00:01.78 bitrate=   0.2kbits/s speed=0.0196x elapsed=0:01:31.19    \nframe=  109 fps=1.2 q=51.0 size=       0KiB time=00:00:01.78 bitrate=   0.2kbits/s speed=0.0194x elapsed=0:01:31.71    \nframe=  110 fps=1.2 q=51.0 size=       0KiB time=00:00:01.80 bitrate=   0.2kbits/s speed=0.0195x elapsed=0:01:32.24    \nframe=  111 fps=1.2 q=50.9 size=       0KiB time=00:00:01.81 bitrate=   0.2kbits/s speed=0.0196x elapsed=0:01:32.77    \nframe=  113 fps=1.2 q=50.9 size=       0KiB time=00:00:01.85 bitrate=   0.2kbits/s speed=0.0198x elapsed=0:01:33.28    \nframe=  114 fps=1.2 q=51.0 size=       0KiB time=00:00:01.86 bitrate=   0.2kbits/s speed=0.0199x elapsed=0:01:33.80    \nframe=  114 fps=1.2 q=51.0 size=       0KiB time=00:00:01.86 bitrate=   0.2kbits/s speed=0.0198x elapsed=0:01:34.32    \nframe=  114 fps=1.2 q=51.0 size=       0KiB time=00:00:01.86 bitrate=   0.2kbits/s speed=0.0197x elapsed=0:01:34.84    \nframe=  115 fps=1.2 q=50.8 size=       0KiB time=00:00:01.88 bitrate=   0.2kbits/s speed=0.0198x elapsed=0:01:35.34    \nframe=  116 fps=1.2 q=50.7 size=       0KiB time=00:00:01.90 bitrate=   0.2kbits/s speed=0.0198x elapsed=0:01:35.86    \nframe=  116 fps=1.2 q=50.7 size=       0KiB time=00:00:01.90 bitrate=   0.2kbits/s speed=0.0197x elapsed=0:01:36.38    \nframe=  117 fps=1.2 q=46.6 size=       0KiB time=00:00:01.91 bitrate=   0.2kbits/s speed=0.0198x elapsed=0:01:36.91    \nframe=  120 fps=1.2 q=50.8 size=       0KiB time=00:00:01.96 bitrate=   0.2kbits/s speed=0.0202x elapsed=0:01:37.43    \nframe=  120 fps=1.2 q=50.8 size=       0KiB time=00:00:01.96 bitrate=   0.2kbits/s speed=0.0201x elapsed=0:01:37.95    \nframe=  121 fps=1.2 q=50.4 size=       0KiB time=00:00:01.98 bitrate=   0.2kbits/s speed=0.0201x elapsed=0:01:38.47    \nframe=  122 fps=1.2 q=46.6 size=       0KiB time=00:00:02.00 bitrate=   0.2kbits/s speed=0.0202x elapsed=0:01:38.98    \nframe=  122 fps=1.2 q=46.6 size=       0KiB time=00:00:02.00 bitrate=   0.2kbits/s speed=0.0201x elapsed=0:01:39.53    \nframe=  124 fps=1.2 q=50.7 size=       0KiB time=00:00:02.03 bitrate=   0.2kbits/s speed=0.0203x elapsed=0:01:40.05    \nframe=  125 fps=1.2 q=50.8 size=       0KiB time=00:00:02.05 bitrate=   0.2kbits/s speed=0.0204x elapsed=0:01:40.56    \nframe=  126 fps=1.2 q=50.6 size=       0KiB time=00:00:02.06 bitrate=   0.2kbits/s speed=0.0204x elapsed=0:01:41.08    \nframe=  128 fps=1.3 q=50.5 size=       0KiB time=00:00:02.10 bitrate=   0.2kbits/s speed=0.0207x elapsed=0:01:41.60    \nframe=  128 fps=1.3 q=50.5 size=       0KiB time=00:00:02.10 bitrate=   0.2kbits/s speed=0.0206x elapsed=0:01:42.11    \nframe=  128 fps=1.2 q=50.5 size=       0KiB time=00:00:02.10 bitrate=   0.2kbits/s speed=0.0205x elapsed=0:01:42.63    \nframe=  129 fps=1.3 q=50.7 size=       0KiB time=00:00:02.11 bitrate=   0.2kbits/s speed=0.0205x elapsed=0:01:43.17    \nframe=  130 fps=1.3 q=50.7 size=       0KiB time=00:00:02.13 bitrate=   0.2kbits/s speed=0.0206x elapsed=0:01:43.70    \nframe=  131 fps=1.3 q=50.7 size=       0KiB time=00:00:02.13 bitrate=   0.2kbits/s speed=0.0205x elapsed=0:01:44.24    \nframe=  131 fps=1.3 q=50.7 size=       0KiB time=00:00:02.15 bitrate=   0.2kbits/s speed=0.0205x elapsed=0:01:44.79    \nframe=  132 fps=1.3 q=45.9 size=       0KiB time=00:00:02.16 bitrate=   0.2kbits/s speed=0.0206x elapsed=0:01:45.37    \nframe=  133 fps=1.3 q=50.7 size=     256KiB time=00:00:02.18 bitrate= 960.7kbits/s speed=0.0206x elapsed=0:01:45.88    \nframe=  133 fps=1.2 q=50.7 size=     256KiB time=00:00:02.18 bitrate= 960.7kbits/s speed=0.0205x elapsed=0:01:46.40    \nframe=  134 fps=1.3 q=50.8 size=     256KiB time=00:00:02.20 bitrate= 953.4kbits/s speed=0.0206x elapsed=0:01:46.95    \nframe=  135 fps=1.3 q=50.7 size=     256KiB time=00:00:02.21 bitrate= 946.2kbits/s speed=0.0206x elapsed=0:01:47.48    \nframe=  135 fps=1.2 q=50.7 size=     256KiB time=00:00:02.21 bitrate= 946.2kbits/s speed=0.0205x elapsed=0:01:48.00    \nframe=  136 fps=1.3 q=50.6 size=     256KiB time=00:00:02.23 bitrate= 939.2kbits/s speed=0.0206x elapsed=0:01:48.52    \nframe=  137 fps=1.3 q=46.2 size=     256KiB time=00:00:02.25 bitrate= 932.2kbits/s speed=0.0206x elapsed=0:01:49.04    \nframe=  138 fps=1.3 q=50.7 size=     256KiB time=00:00:02.26 bitrate= 925.4kbits/s speed=0.0207x elapsed=0:01:49.58    \nframe=  138 fps=1.3 q=50.7 size=     256KiB time=00:00:02.26 bitrate= 925.4kbits/s speed=0.0206x elapsed=0:01:50.10    \nframe=  139 fps=1.3 q=51.0 size=     256KiB time=00:00:02.28 bitrate= 918.6kbits/s speed=0.0206x elapsed=0:01:50.61    \nframe=  139 fps=1.3 q=51.0 size=     256KiB time=00:00:02.28 bitrate= 918.6kbits/s speed=0.0205x elapsed=0:01:51.14    \nframe=  141 fps=1.3 q=50.6 size=     256KiB time=00:00:02.31 bitrate= 905.4kbits/s speed=0.0207x elapsed=0:01:51.70    \nframe=  141 fps=1.3 q=50.6 size=     256KiB time=00:00:02.31 bitrate= 905.4kbits/s speed=0.0206x elapsed=0:01:52.23    \nframe=  141 fps=1.3 q=50.6 size=     256KiB time=00:00:02.31 bitrate= 905.4kbits/s speed=0.0205x elapsed=0:01:52.76    \nframe=  142 fps=1.3 q=46.0 size=     256KiB time=00:00:02.33 bitrate= 898.9kbits/s speed=0.0206x elapsed=0:01:53.28    \nframe=  143 fps=1.3 q=50.6 size=     256KiB time=00:00:02.35 bitrate= 892.6kbits/s speed=0.0207x elapsed=0:01:53.80    \nframe=  143 fps=1.3 q=50.6 size=     256KiB time=00:00:02.35 bitrate= 892.6kbits/s speed=0.0206x elapsed=0:01:54.32    \nframe=  144 fps=1.3 q=50.7 size=     256KiB time=00:00:02.36 bitrate= 886.3kbits/s speed=0.0206x elapsed=0:01:54.84    \nframe=  144 fps=1.2 q=50.7 size=     256KiB time=00:00:02.36 bitrate= 886.3kbits/s speed=0.0205x elapsed=0:01:55.36    \nframe=  144 fps=1.2 q=50.7 size=     256KiB time=00:00:02.36 bitrate= 886.3kbits/s speed=0.0204x elapsed=0:01:55.88    \nframe=  146 fps=1.3 q=50.8 size=     256KiB time=00:00:02.40 bitrate= 874.0kbits/s speed=0.0206x elapsed=0:01:56.41    \nframe=  147 fps=1.3 q=45.8 size=     256KiB time=00:00:02.41 bitrate= 867.9kbits/s speed=0.0207x elapsed=0:01:56.94    \nframe=  147 fps=1.3 q=45.8 size=     256KiB time=00:00:02.41 bitrate= 867.9kbits/s speed=0.0206x elapsed=0:01:57.45    \nframe=  148 fps=1.3 q=50.6 size=     256KiB time=00:00:02.43 bitrate= 862.0kbits/s speed=0.0206x elapsed=0:01:57.98    \nframe=  150 fps=1.3 q=50.8 size=     256KiB time=00:00:02.46 bitrate= 850.3kbits/s speed=0.0208x elapsed=0:01:58.51    \nframe=  150 fps=1.3 q=50.8 size=     256KiB time=00:00:02.46 bitrate= 850.3kbits/s speed=0.0207x elapsed=0:01:59.01    \nframe=  151 fps=1.3 q=50.7 size=     256KiB time=00:00:02.48 bitrate= 844.6kbits/s speed=0.0208x elapsed=0:01:59.54    \nframe=  151 fps=1.3 q=50.7 size=     256KiB time=00:00:02.48 bitrate= 844.6kbits/s speed=0.0207x elapsed=0:02:00.05    \nframe=  153 fps=1.3 q=50.6 size=     256KiB time=00:00:02.51 bitrate= 833.4kbits/s speed=0.0209x elapsed=0:02:00.58    \nframe=  153 fps=1.3 q=50.6 size=     256KiB time=00:00:02.51 bitrate= 833.4kbits/s speed=0.0208x elapsed=0:02:01.12    \nframe=  153 fps=1.3 q=50.6 size=     256KiB time=00:00:02.51 bitrate= 833.4kbits/s speed=0.0207x elapsed=0:02:01.68    \nframe=  154 fps=1.3 q=50.8 size=     256KiB time=00:00:02.53 bitrate= 828.0kbits/s speed=0.0207x elapsed=0:02:02.29    \nframe=  154 fps=1.3 q=50.8 size=     256KiB time=00:00:02.53 bitrate= 828.0kbits/s speed=0.0206x elapsed=0:02:02.85    \nframe=  154 fps=1.2 q=50.8 size=     256KiB time=00:00:02.53 bitrate= 828.0kbits/s speed=0.0205x elapsed=0:02:03.41    \nframe=  154 fps=1.2 q=50.8 size=     256KiB time=00:00:02.53 bitrate= 828.0kbits/s speed=0.0204x elapsed=0:02:03.95    \nframe=  154 fps=1.2 q=50.8 size=     256KiB time=00:00:02.53 bitrate= 828.0kbits/s speed=0.0203x elapsed=0:02:04.49    \nframe=  155 fps=1.2 q=50.6 size=     256KiB time=00:00:02.55 bitrate= 822.6kbits/s speed=0.0204x elapsed=0:02:05.04    \nframe=  155 fps=1.2 q=50.6 size=     256KiB time=00:00:02.55 bitrate= 822.6kbits/s speed=0.0203x elapsed=0:02:05.56    \nframe=  156 fps=1.2 q=50.6 size=     256KiB time=00:00:02.56 bitrate= 817.2kbits/s speed=0.0204x elapsed=0:02:06.08    \nframe=  157 fps=1.2 q=46.4 size=     256KiB time=00:00:02.58 bitrate= 811.9kbits/s speed=0.0204x elapsed=0:02:06.63    \nframe=  159 fps=1.3 q=51.0 size=     256KiB time=00:00:02.61 bitrate= 801.6kbits/s speed=0.0206x elapsed=0:02:07.16    \nframe=  160 fps=1.3 q=50.7 size=     256KiB time=00:00:02.63 bitrate= 796.5kbits/s speed=0.0206x elapsed=0:02:07.67    \nframe=  161 fps=1.3 q=50.8 size=     256KiB time=00:00:02.65 bitrate= 791.5kbits/s speed=0.0207x elapsed=0:02:08.19    \nframe=  163 fps=1.3 q=50.6 size=     256KiB time=00:00:02.68 bitrate= 781.7kbits/s speed=0.0208x elapsed=0:02:08.71    \nframe=  165 fps=1.3 q=50.7 size=     256KiB time=00:00:02.71 bitrate= 772.1kbits/s speed=0.021x elapsed=0:02:09.23    \nframe=  167 fps=1.3 q=46.4 size=     256KiB time=00:00:02.75 bitrate= 762.7kbits/s speed=0.0212x elapsed=0:02:09.74    \nframe=  169 fps=1.3 q=50.6 size=     256KiB time=00:00:02.78 bitrate= 753.6kbits/s speed=0.0214x elapsed=0:02:10.26    \nframe=  170 fps=1.3 q=50.3 size=     256KiB time=00:00:02.80 bitrate= 749.1kbits/s speed=0.0214x elapsed=0:02:10.76    \nframe=  171 fps=1.3 q=49.9 size=     256KiB time=00:00:02.81 bitrate= 744.7kbits/s speed=0.0215x elapsed=0:02:11.29    \nframe=  172 fps=1.3 q=46.3 size=     256KiB time=00:00:02.83 bitrate= 740.3kbits/s speed=0.0215x elapsed=0:02:11.83    \nframe=  172 fps=1.3 q=46.3 size=     256KiB time=00:00:02.83 bitrate= 740.3kbits/s speed=0.0214x elapsed=0:02:12.41    \nframe=  173 fps=1.3 q=49.9 size=     256KiB time=00:00:02.85 bitrate= 736.0kbits/s speed=0.0214x elapsed=0:02:12.93    \nframe=  175 fps=1.3 q=50.4 size=     256KiB time=00:00:02.88 bitrate= 727.5kbits/s speed=0.0216x elapsed=0:02:13.45    \nframe=  176 fps=1.3 q=50.5 size=     256KiB time=00:00:02.90 bitrate= 723.3kbits/s speed=0.0216x elapsed=0:02:13.98    \nframe=  177 fps=1.3 q=45.6 size=     256KiB time=00:00:02.91 bitrate= 719.1kbits/s speed=0.0217x elapsed=0:02:14.48    \nframe=  178 fps=1.3 q=50.3 size=     256KiB time=00:00:02.93 bitrate= 715.1kbits/s speed=0.0217x elapsed=0:02:15.01    \nframe=  179 fps=1.3 q=50.6 size=     256KiB time=00:00:02.95 bitrate= 711.0kbits/s speed=0.0218x elapsed=0:02:15.53    \nframe=  180 fps=1.3 q=50.7 size=     256KiB time=00:00:02.95 bitrate= 711.0kbits/s speed=0.0217x elapsed=0:02:16.09    \nframe=  180 fps=1.3 q=50.7 size=     256KiB time=00:00:02.96 bitrate= 707.0kbits/s speed=0.0217x elapsed=0:02:16.62    \nframe=  180 fps=1.3 q=50.7 size=     256KiB time=00:00:02.96 bitrate= 707.0kbits/s speed=0.0216x elapsed=0:02:17.18    \nframe=  180 fps=1.3 q=50.7 size=     256KiB time=00:00:02.96 bitrate= 707.0kbits/s speed=0.0215x elapsed=0:02:17.73    \nframe=  180 fps=1.3 q=50.7 size=     256KiB time=00:00:02.96 bitrate= 707.0kbits/s speed=0.0214x elapsed=0:02:18.35    \nframe=  180 fps=1.3 q=50.7 size=     256KiB time=00:00:02.96 bitrate= 707.0kbits/s speed=0.0214x elapsed=0:02:18.95    \nframe=  181 fps=1.3 q=50.4 size=     256KiB time=00:00:02.98 bitrate= 703.1kbits/s speed=0.0214x elapsed=0:02:19.49    \nframe=  182 fps=1.3 q=45.6 size=     256KiB time=00:00:03.00 bitrate= 699.2kbits/s speed=0.0214x elapsed=0:02:20.02    \nframe=  182 fps=1.3 q=45.6 size=     256KiB time=00:00:03.00 bitrate= 699.2kbits/s speed=0.0213x elapsed=0:02:20.54    \nframe=  183 fps=1.3 q=50.0 size=     256KiB time=00:00:03.01 bitrate= 695.3kbits/s speed=0.0214x elapsed=0:02:21.07    \nframe=  183 fps=1.3 q=50.0 size=     256KiB time=00:00:03.01 bitrate= 695.3kbits/s speed=0.0213x elapsed=0:02:21.62    \nframe=  184 fps=1.3 q=50.6 size=     256KiB time=00:00:03.03 bitrate= 691.5kbits/s speed=0.0213x elapsed=0:02:22.19    \nframe=  185 fps=1.3 q=50.5 size=     256KiB time=00:00:03.05 bitrate= 687.7kbits/s speed=0.0214x elapsed=0:02:22.73    \nframe=  186 fps=1.3 q=50.2 size=     256KiB time=00:00:03.06 bitrate= 684.0kbits/s speed=0.0214x elapsed=0:02:23.26    \nframe=  186 fps=1.3 q=50.2 size=     256KiB time=00:00:03.06 bitrate= 684.0kbits/s speed=0.0213x elapsed=0:02:23.81    \nframe=  186 fps=1.3 q=50.2 size=     256KiB time=00:00:03.06 bitrate= 684.0kbits/s speed=0.0212x elapsed=0:02:24.37    \nframe=  186 fps=1.3 q=50.2 size=     256KiB time=00:00:03.06 bitrate= 684.0kbits/s speed=0.0212x elapsed=0:02:24.91    \nframe=  187 fps=1.3 q=45.3 size=     256KiB time=00:00:03.08 bitrate= 680.3kbits/s speed=0.0212x elapsed=0:02:25.45    \nframe=  187 fps=1.3 q=45.3 size=     256KiB time=00:00:03.08 bitrate= 680.3kbits/s speed=0.0211x elapsed=0:02:26.00    \nframe=  189 fps=1.3 q=50.5 size=     256KiB time=00:00:03.11 bitrate= 673.0kbits/s speed=0.0213x elapsed=0:02:26.53    \nframe=  189 fps=1.3 q=50.5 size=     256KiB time=00:00:03.11 bitrate= 673.0kbits/s speed=0.0212x elapsed=0:02:27.05    \nframe=  190 fps=1.3 q=50.2 size=     256KiB time=00:00:03.13 bitrate= 669.4kbits/s speed=0.0212x elapsed=0:02:27.57    \nframe=  191 fps=1.3 q=50.1 size=     256KiB time=00:00:03.15 bitrate= 665.9kbits/s speed=0.0213x elapsed=0:02:28.09    \nframe=  191 fps=1.3 q=50.1 size=     256KiB time=00:00:03.15 bitrate= 665.9kbits/s speed=0.0212x elapsed=0:02:28.62    \nframe=  191 fps=1.3 q=50.1 size=     256KiB time=00:00:03.15 bitrate= 665.9kbits/s speed=0.0211x elapsed=0:02:29.16    \nframe=  191 fps=1.3 q=50.1 size=     256KiB time=00:00:03.15 bitrate= 665.9kbits/s speed=0.021x elapsed=0:02:29.71    \nframe=  192 fps=1.3 q=45.5 size=     256KiB time=00:00:03.16 bitrate= 662.4kbits/s speed=0.0211x elapsed=0:02:30.26    \nframe=  193 fps=1.3 q=49.6 size=     256KiB time=00:00:03.18 bitrate= 658.9kbits/s speed=0.0211x elapsed=0:02:30.81    \nframe=  194 fps=1.3 q=50.1 size=     256KiB time=00:00:03.20 bitrate= 655.5kbits/s speed=0.0211x elapsed=0:02:31.37    \nframe=  194 fps=1.3 q=50.1 size=     256KiB time=00:00:03.20 bitrate= 655.5kbits/s speed=0.0211x elapsed=0:02:31.91    \nframe=  194 fps=1.3 q=50.1 size=     256KiB time=00:00:03.20 bitrate= 655.5kbits/s speed=0.021x elapsed=0:02:32.43    \nframe=  194 fps=1.3 q=50.1 size=     256KiB time=00:00:03.20 bitrate= 655.5kbits/s speed=0.0209x elapsed=0:02:32.99    \nframe=  194 fps=1.3 q=50.1 size=     256KiB time=00:00:03.20 bitrate= 655.5kbits/s speed=0.0208x elapsed=0:02:33.51    \nframe=  196 fps=1.3 q=50.0 size=     256KiB time=00:00:03.23 bitrate= 648.7kbits/s speed=0.021x elapsed=0:02:34.04    \nframe=  196 fps=1.3 q=50.0 size=     256KiB time=00:00:03.23 bitrate= 648.7kbits/s speed=0.0209x elapsed=0:02:34.57    \nframe=  197 fps=1.3 q=45.1 size=     256KiB time=00:00:03.25 bitrate= 645.4kbits/s speed=0.021x elapsed=0:02:35.12    \nframe=  197 fps=1.3 q=45.1 size=     256KiB time=00:00:03.25 bitrate= 645.4kbits/s speed=0.0209x elapsed=0:02:35.67    \nframe=  197 fps=1.3 q=45.1 size=     256KiB time=00:00:03.25 bitrate= 645.4kbits/s speed=0.0208x elapsed=0:02:36.21    \nframe=  197 fps=1.3 q=45.1 size=     256KiB time=00:00:03.25 bitrate= 645.4kbits/s speed=0.0207x elapsed=0:02:36.78    \nframe=  197 fps=1.3 q=45.1 size=     256KiB time=00:00:03.25 bitrate= 645.4kbits/s speed=0.0207x elapsed=0:02:37.34    \nframe=  197 fps=1.2 q=45.1 size=     256KiB time=00:00:03.25 bitrate= 645.4kbits/s speed=0.0206x elapsed=0:02:37.86    \nframe=  198 fps=1.2 q=49.7 size=     256KiB time=00:00:03.26 bitrate= 642.1kbits/s speed=0.0206x elapsed=0:02:38.40    \nframe=  198 fps=1.2 q=49.7 size=     256KiB time=00:00:03.26 bitrate= 642.1kbits/s speed=0.0206x elapsed=0:02:38.94    \nframe=  198 fps=1.2 q=49.7 size=     256KiB time=00:00:03.26 bitrate= 642.1kbits/s speed=0.0205x elapsed=0:02:39.51    \nframe=  198 fps=1.2 q=49.7 size=     256KiB time=00:00:03.26 bitrate= 642.1kbits/s speed=0.0204x elapsed=0:02:40.06    \nframe=  199 fps=1.2 q=50.2 size=     256KiB time=00:00:03.28 bitrate= 638.8kbits/s speed=0.0204x elapsed=0:02:40.63    \nframe=  200 fps=1.2 q=50.2 size=     256KiB time=00:00:03.30 bitrate= 635.6kbits/s speed=0.0205x elapsed=0:02:41.20    \nframe=  200 fps=1.2 q=50.2 size=     256KiB time=00:00:03.30 bitrate= 635.6kbits/s speed=0.0204x elapsed=0:02:41.75    \nframe=  200 fps=1.2 q=50.2 size=     256KiB time=00:00:03.30 bitrate= 635.6kbits/s speed=0.0203x elapsed=0:02:42.31    \nframe=  200 fps=1.2 q=50.2 size=     256KiB time=00:00:03.30 bitrate= 635.6kbits/s speed=0.0203x elapsed=0:02:42.87    \nframe=  200 fps=1.2 q=50.2 size=     256KiB time=00:00:03.30 bitrate= 635.6kbits/s speed=0.0202x elapsed=0:02:43.44    \nframe=  201 fps=1.2 q=49.8 size=     256KiB time=00:00:03.31 bitrate= 632.4kbits/s speed=0.0202x elapsed=0:02:43.99    \nframe=  201 fps=1.2 q=49.8 size=     256KiB time=00:00:03.31 bitrate= 632.4kbits/s speed=0.0202x elapsed=0:02:44.53    \nframe=  203 fps=1.2 q=49.5 size=     256KiB time=00:00:03.35 bitrate= 626.1kbits/s speed=0.0203x elapsed=0:02:45.10    \nframe=  203 fps=1.2 q=49.5 size=     256KiB time=00:00:03.35 bitrate= 626.1kbits/s speed=0.0202x elapsed=0:02:45.64    \nframe=  203 fps=1.2 q=49.5 size=     256KiB time=00:00:03.35 bitrate= 626.1kbits/s speed=0.0202x elapsed=0:02:46.20    \nframe=  203 fps=1.2 q=49.5 size=     256KiB time=00:00:03.35 bitrate= 626.1kbits/s speed=0.0201x elapsed=0:02:46.76    \nframe=  203 fps=1.2 q=49.5 size=     256KiB time=00:00:03.35 bitrate= 626.1kbits/s speed=0.02x elapsed=0:02:47.30    \nframe=  204 fps=1.2 q=50.4 size=     256KiB time=00:00:03.36 bitrate= 623.0kbits/s speed=0.0201x elapsed=0:02:47.84    \nframe=  204 fps=1.2 q=50.4 size=     256KiB time=00:00:03.36 bitrate= 623.0kbits/s speed=0.02x elapsed=0:02:48.39    \nframe=  204 fps=1.2 q=50.4 size=     256KiB time=00:00:03.36 bitrate= 623.0kbits/s speed=0.0199x elapsed=0:02:48.93    \nframe=  205 fps=1.2 q=50.0 size=     256KiB time=00:00:03.38 bitrate= 620.0kbits/s speed=0.02x elapsed=0:02:49.48    \nframe=  206 fps=1.2 q=50.0 size=     256KiB time=00:00:03.40 bitrate= 616.9kbits/s speed=0.02x elapsed=0:02:50.01    \nframe=  206 fps=1.2 q=50.0 size=     256KiB time=00:00:03.40 bitrate= 616.9kbits/s speed=0.0199x elapsed=0:02:50.56    \nframe=  206 fps=1.2 q=50.0 size=     256KiB time=00:00:03.40 bitrate= 616.9kbits/s speed=0.0199x elapsed=0:02:51.07    \nframe=  207 fps=1.2 q=45.2 size=     256KiB time=00:00:03.41 bitrate= 613.9kbits/s speed=0.0199x elapsed=0:02:51.60    \nframe=  208 fps=1.2 q=49.6 size=     256KiB time=00:00:03.43 bitrate= 610.9kbits/s speed=0.0199x elapsed=0:02:52.11    \nframe=  208 fps=1.2 q=49.6 size=     256KiB time=00:00:03.43 bitrate= 610.9kbits/s speed=0.0199x elapsed=0:02:52.63    \nframe=  209 fps=1.2 q=50.2 size=     256KiB time=00:00:03.45 bitrate= 608.0kbits/s speed=0.0199x elapsed=0:02:53.23    \nframe=  209 fps=1.2 q=50.2 size=     256KiB time=00:00:03.45 bitrate= 608.0kbits/s speed=0.0198x elapsed=0:02:53.83    \nframe=  209 fps=1.2 q=50.2 size=     256KiB time=00:00:03.45 bitrate= 608.0kbits/s speed=0.0198x elapsed=0:02:54.45    \nframe=  209 fps=1.2 q=50.2 size=     256KiB time=00:00:03.45 bitrate= 608.0kbits/s speed=0.0197x elapsed=0:02:55.04    \nframe=  210 fps=1.2 q=49.8 size=     256KiB time=00:00:03.45 bitrate= 608.0kbits/s speed=0.0196x elapsed=0:02:55.66    \nframe=  210 fps=1.2 q=49.8 size=     256KiB time=00:00:03.46 bitrate= 605.0kbits/s speed=0.0197x elapsed=0:02:56.25    \nframe=  210 fps=1.2 q=49.8 size=     256KiB time=00:00:03.46 bitrate= 605.0kbits/s speed=0.0196x elapsed=0:02:56.90    \nframe=  210 fps=1.2 q=49.8 size=     256KiB time=00:00:03.46 bitrate= 605.0kbits/s speed=0.0195x elapsed=0:02:57.54    \nframe=  211 fps=1.2 q=49.9 size=     256KiB time=00:00:03.48 bitrate= 602.2kbits/s speed=0.0196x elapsed=0:02:58.13    \nframe=  211 fps=1.2 q=49.9 size=     256KiB time=00:00:03.48 bitrate= 602.2kbits/s speed=0.0195x elapsed=0:02:58.73    \nframe=  211 fps=1.2 q=49.9 size=     256KiB time=00:00:03.48 bitrate= 602.2kbits/s speed=0.0194x elapsed=0:02:59.34    \nframe=  212 fps=1.2 q=44.8 size=     256KiB time=00:00:03.50 bitrate= 599.3kbits/s speed=0.0194x elapsed=0:03:00.02    \nframe=  212 fps=1.2 q=44.8 size=     256KiB time=00:00:03.50 bitrate= 599.3kbits/s speed=0.0194x elapsed=0:03:00.57    \nframe=  212 fps=1.2 q=44.8 size=     256KiB time=00:00:03.50 bitrate= 599.3kbits/s speed=0.0193x elapsed=0:03:01.11    \nframe=  212 fps=1.2 q=44.8 size=     256KiB time=00:00:03.50 bitrate= 599.3kbits/s speed=0.0193x elapsed=0:03:01.67    \nframe=  213 fps=1.2 q=49.5 size=     256KiB time=00:00:03.51 bitrate= 596.4kbits/s speed=0.0193x elapsed=0:03:02.24    \nframe=  213 fps=1.2 q=49.5 size=     256KiB time=00:00:03.51 bitrate= 596.4kbits/s speed=0.0192x elapsed=0:03:02.83    \nframe=  213 fps=1.2 q=49.5 size=     256KiB time=00:00:03.51 bitrate= 596.4kbits/s speed=0.0192x elapsed=0:03:03.38    \nframe=  214 fps=1.2 q=50.3 size=     256KiB time=00:00:03.53 bitrate= 593.6kbits/s speed=0.0192x elapsed=0:03:03.90    \nframe=  215 fps=1.2 q=50.2 size=     256KiB time=00:00:03.55 bitrate= 590.8kbits/s speed=0.0192x elapsed=0:03:04.43    \nframe=  216 fps=1.2 q=50.3 size=     256KiB time=00:00:03.56 bitrate= 588.1kbits/s speed=0.0193x elapsed=0:03:04.95    \nframe=  216 fps=1.2 q=50.3 size=     256KiB time=00:00:03.56 bitrate= 588.1kbits/s speed=0.0192x elapsed=0:03:05.47    \nframe=  217 fps=1.2 q=45.1 size=     256KiB time=00:00:03.58 bitrate= 585.4kbits/s speed=0.0193x elapsed=0:03:05.99    \nframe=  217 fps=1.2 q=45.1 size=     256KiB time=00:00:03.58 bitrate= 585.4kbits/s speed=0.0192x elapsed=0:03:06.52    \nframe=  218 fps=1.2 q=49.7 size=     256KiB time=00:00:03.60 bitrate= 582.6kbits/s speed=0.0192x elapsed=0:03:07.04    \nframe=  220 fps=1.2 q=50.5 size=     256KiB time=00:00:03.63 bitrate= 577.3kbits/s speed=0.0194x elapsed=0:03:07.54    \nframe=  220 fps=1.2 q=50.5 size=     256KiB time=00:00:03.63 bitrate= 577.3kbits/s speed=0.0193x elapsed=0:03:08.07    \nframe=  220 fps=1.2 q=50.5 size=     256KiB time=00:00:03.63 bitrate= 577.3kbits/s speed=0.0193x elapsed=0:03:08.64    \nframe=  221 fps=1.2 q=50.5 size=     256KiB time=00:00:03.65 bitrate= 574.7kbits/s speed=0.0193x elapsed=0:03:09.16    \nframe=  223 fps=1.2 q=50.0 size=     256KiB time=00:00:03.68 bitrate= 569.5kbits/s speed=0.0194x elapsed=0:03:09.72    \nframe=  224 fps=1.2 q=50.9 size=     256KiB time=00:00:03.70 bitrate= 566.9kbits/s speed=0.0194x elapsed=0:03:10.24    \nframe=  225 fps=1.2 q=50.6 size=     256KiB time=00:00:03.71 bitrate= 564.4kbits/s speed=0.0195x elapsed=0:03:10.75    \nframe=  225 fps=1.2 q=50.6 size=     256KiB time=00:00:03.71 bitrate= 564.4kbits/s speed=0.0194x elapsed=0:03:11.27    \nframe=  226 fps=1.2 q=50.7 size=     256KiB time=00:00:03.73 bitrate= 561.8kbits/s speed=0.0195x elapsed=0:03:11.78    \nframe=  227 fps=1.2 q=46.5 size=     256KiB time=00:00:03.75 bitrate= 559.3kbits/s speed=0.0195x elapsed=0:03:12.30    \nframe=  228 fps=1.2 q=50.9 size=     256KiB time=00:00:03.76 bitrate= 556.9kbits/s speed=0.0195x elapsed=0:03:12.83    \nframe=  229 fps=1.2 q=51.0 size=     256KiB time=00:00:03.78 bitrate= 554.4kbits/s speed=0.0196x elapsed=0:03:13.35    \nframe=  230 fps=1.2 q=51.0 size=     256KiB time=00:00:03.80 bitrate= 552.0kbits/s speed=0.0196x elapsed=0:03:13.87    \nframe=  231 fps=1.2 q=50.9 size=     256KiB time=00:00:03.81 bitrate= 549.6kbits/s speed=0.0196x elapsed=0:03:14.39    \nframe=  231 fps=1.2 q=50.9 size=     256KiB time=00:00:03.81 bitrate= 549.6kbits/s speed=0.0196x elapsed=0:03:14.91    \nframe=  231 fps=1.2 q=50.9 size=     256KiB time=00:00:03.81 bitrate= 549.6kbits/s speed=0.0195x elapsed=0:03:15.42    \nframe=  232 fps=1.2 q=46.6 size=     256KiB time=00:00:03.83 bitrate= 547.2kbits/s speed=0.0196x elapsed=0:03:15.96    \nframe=  233 fps=1.2 q=51.0 size=     256KiB time=00:00:03.85 bitrate= 544.8kbits/s speed=0.0196x elapsed=0:03:16.48    \nframe=  234 fps=1.2 q=51.0 size=     256KiB time=00:00:03.86 bitrate= 542.5kbits/s speed=0.0196x elapsed=0:03:17.02    \nframe=  235 fps=1.2 q=51.0 size=     256KiB time=00:00:03.88 bitrate= 540.1kbits/s speed=0.0197x elapsed=0:03:17.53    \nframe=  235 fps=1.2 q=51.0 size=     256KiB time=00:00:03.88 bitrate= 540.1kbits/s speed=0.0196x elapsed=0:03:18.06    \nframe=  236 fps=1.2 q=51.0 size=     256KiB time=00:00:03.90 bitrate= 537.8kbits/s speed=0.0196x elapsed=0:03:18.58    \nframe=  237 fps=1.2 q=48.4 size=     256KiB time=00:00:03.91 bitrate= 535.5kbits/s speed=0.0197x elapsed=0:03:19.10    \nframe=  237 fps=1.2 q=48.4 size=     256KiB time=00:00:03.91 bitrate= 535.5kbits/s speed=0.0196x elapsed=0:03:19.61    \nframe=  237 fps=1.2 q=48.4 size=     256KiB time=00:00:03.91 bitrate= 535.5kbits/s speed=0.0196x elapsed=0:03:20.14    \nframe=  237 fps=1.2 q=48.4 size=     256KiB time=00:00:03.91 bitrate= 535.5kbits/s speed=0.0195x elapsed=0:03:20.68    \nframe=  238 fps=1.2 q=51.0 size=     256KiB time=00:00:03.93 bitrate= 533.3kbits/s speed=0.0196x elapsed=0:03:21.19    \nframe=  239 fps=1.2 q=51.0 size=     256KiB time=00:00:03.95 bitrate= 531.0kbits/s speed=0.0196x elapsed=0:03:21.71    \nframe=  239 fps=1.2 q=51.0 size=     256KiB time=00:00:03.95 bitrate= 531.0kbits/s speed=0.0195x elapsed=0:03:22.25    \nframe=  240 fps=1.2 q=51.0 size=     256KiB time=00:00:03.96 bitrate= 528.8kbits/s speed=0.0196x elapsed=0:03:22.77    \nframe=  241 fps=1.2 q=51.0 size=     256KiB time=00:00:03.98 bitrate= 526.6kbits/s speed=0.0196x elapsed=0:03:23.30    \nframe=  241 fps=1.2 q=51.0 size=     256KiB time=00:00:03.98 bitrate= 526.6kbits/s speed=0.0195x elapsed=0:03:23.83    \nframe=  243 fps=1.2 q=51.0 size=     256KiB time=00:00:04.01 bitrate= 522.2kbits/s speed=0.0197x elapsed=0:03:24.40    \nframe=  244 fps=1.2 q=51.0 size=     256KiB time=00:00:04.03 bitrate= 520.0kbits/s speed=0.0197x elapsed=0:03:24.92    \nframe=  244 fps=1.2 q=51.0 size=     256KiB time=00:00:04.03 bitrate= 520.0kbits/s speed=0.0196x elapsed=0:03:25.44    \nframe=  245 fps=1.2 q=51.0 size=     256KiB time=00:00:04.05 bitrate= 517.9kbits/s speed=0.0197x elapsed=0:03:25.97    \nframe=  245 fps=1.2 q=51.0 size=     256KiB time=00:00:04.05 bitrate= 517.9kbits/s speed=0.0196x elapsed=0:03:26.50    \nframe=  246 fps=1.2 q=51.0 size=     256KiB time=00:00:04.06 bitrate= 515.8kbits/s speed=0.0196x elapsed=0:03:27.05    \nframe=  246 fps=1.2 q=51.0 size=     256KiB time=00:00:04.06 bitrate= 515.8kbits/s speed=0.0196x elapsed=0:03:27.58    \nframe=  247 fps=1.2 q=48.2 size=     256KiB time=00:00:04.08 bitrate= 513.7kbits/s speed=0.0196x elapsed=0:03:28.11    \nframe=  249 fps=1.2 q=51.0 size=     512KiB time=00:00:04.11 bitrate=1018.9kbits/s speed=0.0197x elapsed=0:03:28.63    \nframe=  250 fps=1.2 q=51.0 size=     512KiB time=00:00:04.13 bitrate=1014.8kbits/s speed=0.0198x elapsed=0:03:29.17    \nframe=  250 fps=1.2 q=51.0 size=     512KiB time=00:00:04.13 bitrate=1014.8kbits/s speed=0.0197x elapsed=0:03:29.69    \nframe=  250 fps=1.2 q=51.0 size=     512KiB time=00:00:04.13 bitrate=1014.8kbits/s speed=0.0197x elapsed=0:03:30.24    \nframe=  251 fps=1.2 q=51.0 size=     512KiB time=00:00:04.15 bitrate=1010.8kbits/s speed=0.0197x elapsed=0:03:30.79    \nframe=  251 fps=1.2 q=51.0 size=     512KiB time=00:00:04.15 bitrate=1010.8kbits/s speed=0.0196x elapsed=0:03:31.35    \nframe=  251 fps=1.2 q=51.0 size=     512KiB time=00:00:04.15 bitrate=1010.8kbits/s speed=0.0196x elapsed=0:03:31.94    \nframe=  251 fps=1.2 q=51.0 size=     512KiB time=00:00:04.15 bitrate=1010.8kbits/s speed=0.0195x elapsed=0:03:32.53    \nframe=  251 fps=1.2 q=51.0 size=     512KiB time=00:00:04.15 bitrate=1010.8kbits/s speed=0.0195x elapsed=0:03:33.16    \nframe=  252 fps=1.2 q=51.0 size=     512KiB time=00:00:04.16 bitrate=1006.7kbits/s speed=0.0195x elapsed=0:03:33.69    \nframe=  252 fps=1.2 q=51.0 size=     512KiB time=00:00:04.16 bitrate=1006.7kbits/s speed=0.0194x elapsed=0:03:34.23    \nframe=  254 fps=1.2 q=51.0 size=     512KiB time=00:00:04.20 bitrate= 998.7kbits/s speed=0.0196x elapsed=0:03:34.76    \nframe=  254 fps=1.2 q=51.0 size=     512KiB time=00:00:04.20 bitrate= 998.7kbits/s speed=0.0195x elapsed=0:03:35.29    \nframe=  256 fps=1.2 q=51.0 size=     512KiB time=00:00:04.23 bitrate= 990.9kbits/s speed=0.0196x elapsed=0:03:35.83    \nframe=  258 fps=1.2 q=51.0 size=     512KiB time=00:00:04.26 bitrate= 983.1kbits/s speed=0.0197x elapsed=0:03:36.36    \nframe=  258 fps=1.2 q=51.0 size=     512KiB time=00:00:04.26 bitrate= 983.1kbits/s speed=0.0197x elapsed=0:03:36.88    \nframe=  258 fps=1.2 q=51.0 size=     512KiB time=00:00:04.26 bitrate= 983.1kbits/s speed=0.0196x elapsed=0:03:37.40    \nframe=  258 fps=1.2 q=51.0 size=     512KiB time=00:00:04.26 bitrate= 983.1kbits/s speed=0.0196x elapsed=0:03:37.93    \nframe=  258 fps=1.2 q=51.0 size=     512KiB time=00:00:04.26 bitrate= 983.1kbits/s speed=0.0195x elapsed=0:03:38.50    \nframe=  259 fps=1.2 q=51.0 size=     512KiB time=00:00:04.28 bitrate= 979.3kbits/s speed=0.0196x elapsed=0:03:39.05    \nframe=  260 fps=1.2 q=51.0 size=     512KiB time=00:00:04.30 bitrate= 975.5kbits/s speed=0.0196x elapsed=0:03:39.57    \nframe=  261 fps=1.2 q=51.0 size=     512KiB time=00:00:04.31 bitrate= 971.7kbits/s speed=0.0196x elapsed=0:03:40.14    \nframe=  261 fps=1.2 q=51.0 size=     512KiB time=00:00:04.31 bitrate= 971.7kbits/s speed=0.0196x elapsed=0:03:40.66    \nframe=  263 fps=1.2 q=51.0 size=     512KiB time=00:00:04.35 bitrate= 964.3kbits/s speed=0.0197x elapsed=0:03:41.21    \nframe=  263 fps=1.2 q=51.0 size=     512KiB time=00:00:04.35 bitrate= 964.3kbits/s speed=0.0196x elapsed=0:03:41.72    \nframe=  263 fps=1.2 q=51.0 size=     512KiB time=00:00:04.35 bitrate= 964.3kbits/s speed=0.0196x elapsed=0:03:42.25    \nframe=  265 fps=1.2 q=51.0 size=     512KiB time=00:00:04.38 bitrate= 957.0kbits/s speed=0.0197x elapsed=0:03:42.81    \nframe=  265 fps=1.2 q=51.0 size=     512KiB time=00:00:04.38 bitrate= 957.0kbits/s speed=0.0196x elapsed=0:03:43.36    \nframe=  266 fps=1.2 q=51.0 size=     512KiB time=00:00:04.40 bitrate= 953.3kbits/s speed=0.0196x elapsed=0:03:43.92    \nframe=  266 fps=1.2 q=51.0 size=     512KiB time=00:00:04.40 bitrate= 953.3kbits/s speed=0.0196x elapsed=0:03:44.50    \nframe=  266 fps=1.2 q=51.0 size=     512KiB time=00:00:04.40 bitrate= 953.3kbits/s speed=0.0196x elapsed=0:03:45.04    \nframe=  266 fps=1.2 q=51.0 size=     512KiB time=00:00:04.40 bitrate= 953.3kbits/s speed=0.0195x elapsed=0:03:45.58    \nframe=  266 fps=1.2 q=51.0 size=     512KiB time=00:00:04.40 bitrate= 953.3kbits/s speed=0.0195x elapsed=0:03:46.12    \nframe=  266 fps=1.2 q=51.0 size=     512KiB time=00:00:04.40 bitrate= 953.3kbits/s speed=0.0194x elapsed=0:03:46.69    \nframe=  266 fps=1.2 q=51.0 size=     512KiB time=00:00:04.40 bitrate= 953.3kbits/s speed=0.0194x elapsed=0:03:47.22    \nframe=  266 fps=1.2 q=51.0 size=     512KiB time=00:00:04.40 bitrate= 953.3kbits/s speed=0.0193x elapsed=0:03:47.75    \nframe=  267 fps=1.2 q=51.0 size=     512KiB time=00:00:04.41 bitrate= 949.7kbits/s speed=0.0193x elapsed=0:03:48.33    \nframe=  268 fps=1.2 q=51.0 size=     512KiB time=00:00:04.41 bitrate= 949.7kbits/s speed=0.0193x elapsed=0:03:48.86    \nframe=  268 fps=1.2 q=51.0 size=     512KiB time=00:00:04.43 bitrate= 946.2kbits/s speed=0.0193x elapsed=0:03:49.48    \nframe=  268 fps=1.2 q=51.0 size=     512KiB time=00:00:04.43 bitrate= 946.2kbits/s speed=0.0193x elapsed=0:03:50.06    \nframe=  269 fps=1.2 q=51.0 size=     512KiB time=00:00:04.45 bitrate= 942.6kbits/s speed=0.0193x elapsed=0:03:50.59    \nframe=  270 fps=1.2 q=51.0 size=     512KiB time=00:00:04.46 bitrate= 939.1kbits/s speed=0.0193x elapsed=0:03:51.11    \nframe=  272 fps=1.2 q=51.0 size=     512KiB time=00:00:04.50 bitrate= 932.1kbits/s speed=0.0194x elapsed=0:03:51.63    \nframe=  272 fps=1.2 q=51.0 size=     512KiB time=00:00:04.50 bitrate= 932.1kbits/s speed=0.0194x elapsed=0:03:52.14    \nframe=  272 fps=1.2 q=51.0 size=     512KiB time=00:00:04.50 bitrate= 932.1kbits/s speed=0.0193x elapsed=0:03:52.66    \nframe=  273 fps=1.2 q=51.0 size=     512KiB time=00:00:04.51 bitrate= 928.7kbits/s speed=0.0194x elapsed=0:03:53.17    \nframe=  273 fps=1.2 q=51.0 size=     512KiB time=00:00:04.51 bitrate= 928.7kbits/s speed=0.0193x elapsed=0:03:53.69    \nframe=  276 fps=1.2 q=51.0 size=     512KiB time=00:00:04.56 bitrate= 918.5kbits/s speed=0.0195x elapsed=0:03:54.22    \nframe=  277 fps=1.2 q=51.0 size=     512KiB time=00:00:04.58 bitrate= 915.2kbits/s speed=0.0195x elapsed=0:03:54.75    \nframe=  278 fps=1.2 q=51.0 size=     512KiB time=00:00:04.60 bitrate= 911.9kbits/s speed=0.0196x elapsed=0:03:55.27    \nframe=  278 fps=1.2 q=51.0 size=     512KiB time=00:00:04.60 bitrate= 911.9kbits/s speed=0.0195x elapsed=0:03:55.79    \nframe=  281 fps=1.2 q=51.0 size=     512KiB time=00:00:04.65 bitrate= 902.1kbits/s speed=0.0197x elapsed=0:03:56.30    \nframe=  281 fps=1.2 q=51.0 size=     512KiB time=00:00:04.65 bitrate= 902.1kbits/s speed=0.0196x elapsed=0:03:56.83    \nx265 [warning]: poc:282, VBV underflow (-5259 bits)\nframe=  282 fps=1.2 q=51.0 size=     512KiB time=00:00:04.66 bitrate= 898.9kbits/s speed=0.0197x elapsed=0:03:57.37    \nx265 [warning]: poc:280, VBV underflow (-21077 bits)\nframe=  283 fps=1.2 q=51.0 size=     512KiB time=00:00:04.68 bitrate= 895.7kbits/s speed=0.0197x elapsed=0:03:57.91    \nx265 [warning]: poc:281, VBV underflow (-20637 bits)\nx265 [warning]: poc:283, VBV underflow (-18405 bits)\nframe=  285 fps=1.2 q=51.0 size=     512KiB time=00:00:04.71 bitrate= 889.3kbits/s speed=0.0198x elapsed=0:03:58.43    \nx265 [warning]: poc:289, VBV underflow (-29381 bits)\nframe=  286 fps=1.2 q=51.0 size=     512KiB time=00:00:04.73 bitrate= 886.2kbits/s speed=0.0198x elapsed=0:03:58.94    \nframe=  286 fps=1.2 q=51.0 size=     512KiB time=00:00:04.73 bitrate= 886.2kbits/s speed=0.0198x elapsed=0:03:59.46    \nx265 [warning]: poc:287, VBV underflow (-25109 bits)\nx265 [warning]: poc:285, VBV underflow (-19629 bits)\nframe=  288 fps=1.2 q=51.0 size=     512KiB time=00:00:04.76 bitrate= 880.0kbits/s speed=0.0199x elapsed=0:04:00.00    \nx265 [warning]: poc:286, VBV underflow (-20013 bits)\nx265 [warning]: poc:288, VBV underflow (-17997 bits)\nframe=  290 fps=1.2 q=51.0 size=     512KiB time=00:00:04.80 bitrate= 873.9kbits/s speed=0.02x elapsed=0:04:00.52    \nx265 [warning]: poc:294, VBV underflow (-28909 bits)\nx265 [warning]: poc:292, VBV underflow (-23093 bits)\nframe=  292 fps=1.2 q=51.0 size=     512KiB time=00:00:04.83 bitrate= 867.9kbits/s speed=0.0201x elapsed=0:04:01.05    \nframe=  292 fps=1.2 q=51.0 size=     512KiB time=00:00:04.83 bitrate= 867.9kbits/s speed=0.02x elapsed=0:04:01.59    \nx265 [warning]: poc:290, VBV underflow (-18877 bits)\nframe=  293 fps=1.2 q=51.0 size=     512KiB time=00:00:04.85 bitrate= 864.9kbits/s speed=0.02x elapsed=0:04:02.11    \nx265 [warning]: poc:291, VBV underflow (-19717 bits)\nx265 [warning]: poc:293, VBV underflow (-16053 bits)\nframe=  295 fps=1.2 q=51.0 size=     512KiB time=00:00:04.88 bitrate= 859.0kbits/s speed=0.0201x elapsed=0:04:02.63    \nx265 [warning]: poc:299, VBV underflow (-26557 bits)\nframe=  296 fps=1.2 q=51.0 size=     512KiB time=00:00:04.90 bitrate= 856.1kbits/s speed=0.0202x elapsed=0:04:03.14    \nframe=  296 fps=1.2 q=51.0 size=     512KiB time=00:00:04.90 bitrate= 856.1kbits/s speed=0.0201x elapsed=0:04:03.67    \nx265 [warning]: poc:297, VBV underflow (-20933 bits)\nx265 [warning]: poc:295, VBV underflow (-18229 bits)\nx265 [warning]: poc:296, VBV underflow (-17493 bits)\nframe=  299 fps=1.2 q=51.0 size=     512KiB time=00:00:04.95 bitrate= 847.4kbits/s speed=0.0203x elapsed=0:04:04.21    \nx265 [warning]: poc:298, VBV underflow (-14533 bits)\n[mp4 @ 0000019689a97ac0] Starting second pass: moving the moov atom to the beginning of the file\n[out#0/mp4 @ 0000019689a0ab40] video:748KiB audio:0KiB subtitle:0KiB other streams:0KiB global headers:2KiB muxing overhead: 0.888448%\nframe=  300 fps=1.2 q=51.0 Lsize=     754KiB time=00:00:04.96 bitrate=1244.1kbits/s speed=0.0203x elapsed=0:04:04.29    \nx265 [info]: frame I:      2, Avg QP:49.02  kb/s: 9621.12 \nx265 [info]: frame P:     59, Avg QP:47.76  kb/s: 2203.88 \nx265 [info]: frame B:    239, Avg QP:50.78  kb/s: 910.64  \nx265 [info]: Weighted P-Frames: Y:0.0% UV:0.0%\n\nencoded 300 frames in 243.78s (1.23 fps), 1223.05 kb/s, Avg QP:50.17\n",
  "seconds": 244.72786164283752,
  "probe_out": {}
}